<?xml version="1.0" standalone="no"?><svg xmlns="http://www.w3.org/2000/svg" viewBox="0 0 1440 320"><path fill="#f3f4f5" fill-opacity="1" d="M0,160L26.7,170.7C53.3,181,107,203,160,192C213.3,181,267,139,320,122.7C373.3,107,427,117,480,128C533.3,139,587,149,640,149.3C693.3,149,747,139,800,138.7C853.3,139,907,149,960,160C1013.3,171,1067,181,1120,208C1173.3,235,1227,277,1280,266.7C1333.3,256,1387,192,1413,160L1440,128L1440,320L1413.3,320C1386.7,320,1333,320,1280,320C1226.7,320,1173,320,1120,320C1066.7,320,1013,320,960,320C906.7,320,853,320,800,320C746.7,320,693,320,640,320C586.7,320,533,320,480,320C426.7,320,373,320,320,320C266.7,320,213,320,160,320C106.7,320,53,320,27,320L0,320Z"></path></svg>